<?xml version="1.0" encoding="iso-8859-1"?>
<!-- Generator: Adobe Illustrator 16.0.0, SVG Export Plug-In . SVG Version: 6.00 Build 0)  -->
<!DOCTYPE svg PUBLIC "-//W3C//DTD SVG 1.1//EN" "http://www.w3.org/Graphics/SVG/1.1/DTD/svg11.dtd">
<svg version="1.1" id="Layer_1" xmlns="http://www.w3.org/2000/svg" xmlns:xlink="http://www.w3.org/1999/xlink" x="0px" y="0px"
	 width="32.525px" height="26.118px" viewBox="0 0 32.525 26.118" style="enable-background:new 0 0 32.525 26.118;"
	 xml:space="preserve">
<g>
	<path d="M26.231,3.788c-1.504,0-2.729,1.224-2.729,2.728s1.224,2.729,2.729,2.729c1.505,0,2.729-1.225,2.729-2.729
		S27.737,3.788,26.231,3.788z M26.231,8.521c-1.107,0-2.004-0.898-2.004-2.005c0-1.107,0.897-2.004,2.004-2.004
		c1.107,0,2.005,0.896,2.005,2.004C28.237,7.623,27.339,8.521,26.231,8.521z"/>
	<path d="M26.12,0c-3.537,0-6.404,2.868-6.404,6.404c0,3.538,2.868,6.404,6.404,6.404c3.538,0,6.405-2.866,6.405-6.404
		C32.525,2.868,29.658,0,26.12,0z M26.231,9.579c-1.688,0-3.062-1.374-3.062-3.063c0-1.689,1.374-3.063,3.062-3.063
		c1.689,0,3.063,1.374,3.063,3.063C29.295,8.205,27.921,9.579,26.231,9.579z"/>
	<path d="M27.634,22.853c-1.205-0.484-2.587-0.729-4.12-0.729c-3.759,0-7.335,1.439-8.411,1.914v-7.88l0.5,0.552V6.376
		c1.044-0.877,2.211-1.53,3.49-1.961c0.088-0.339,0.192-0.673,0.325-0.992c-1.653,0.458-3.146,1.244-4.457,2.367
		c-2.199-1.885-4.901-2.84-8.038-2.84c-2.929,0-5.124,0.853-5.216,0.889L1.439,3.944v1.73C0.552,5.84,0,6.137,0,6.623
		c0,2.522,0,18.832,0,18.832h13.132c0.455,0.407,1.119,0.664,1.862,0.664c0.743,0,1.407-0.257,1.861-0.664h12.803
		c0,0,0-7.41,0-12.552c-0.629,0.321-1.308,0.554-2.024,0.687V22.853z M14.82,24.048c-1.091-0.45-4.846-1.878-8.607-1.878
		c-1.485,0-2.802,0.228-3.925,0.678V4.534c0.655-0.219,2.439-0.734,4.636-0.734c2.887,0,5.369,0.874,7.396,2.577V16.71l0.501-0.552
		V24.048z"/>
</g>
<g>
</g>
<g>
</g>
<g>
</g>
<g>
</g>
<g>
</g>
<g>
</g>
<g>
</g>
<g>
</g>
<g>
</g>
<g>
</g>
<g>
</g>
<g>
</g>
<g>
</g>
<g>
</g>
<g>
</g>
</svg>
