<?xml version="1.0" encoding="utf-8"?>
<!-- Generator: Adobe Illustrator 16.0.0, SVG Export Plug-In . SVG Version: 6.00 Build 0)  -->
<!DOCTYPE svg PUBLIC "-//W3C//DTD SVG 1.1//EN" "http://www.w3.org/Graphics/SVG/1.1/DTD/svg11.dtd">
<svg version="1.1" id="Layer_1" xmlns="http://www.w3.org/2000/svg" xmlns:xlink="http://www.w3.org/1999/xlink" x="0px" y="0px"
	 width="50px" height="50px" viewBox="0 0 50 50" enable-background="new 0 0 50 50" xml:space="preserve">
<path style="fill:#fff;" d="M34.192,15.808c-5.069-5.069-13.316-5.068-18.385,0s-5.069,13.316,0,18.385s13.316,5.068,18.385,0
	S39.262,20.876,34.192,15.808z M24.113,14.77c0.099-0.406,0.179-0.839,0.242-1.323l0.057-0.428l0.433-0.005
	c2.878-0.037,5.672,0.958,7.865,2.801l0.418,0.352l-3.008,3.007l-0.352-0.323c-1.68-1.536-3.532-2.747-5.359-3.5l-0.396-0.164
	L24.113,14.77z M22.407,19.61c1.119,0.91,2.284,1.951,3.464,3.093l0.365,0.354l-3.18,3.179l-0.354-0.364
	c-1.143-1.18-2.184-2.345-3.093-3.464l-0.318-0.392l0.394-0.314c0.861-0.687,1.329-1.155,2.016-2.015l0.314-0.394L22.407,19.61z
	 M22.297,18.88l0.233-0.374c0.47-0.75,0.857-1.538,1.152-2.342l0.183-0.493l0.482,0.206c1.727,0.735,3.468,1.874,5.033,3.294
	l0.39,0.352l-3.181,3.18l-0.353-0.339c-0.842-0.809-2.149-2.021-3.599-3.205L22.297,18.88z M22.363,26.237l0.339,0.353l-3.18,3.18
	l-0.352-0.391c-1.401-1.552-2.529-3.297-3.264-5.046l-0.202-0.48l0.489-0.182c0.796-0.296,1.574-0.679,2.312-1.14l0.374-0.234
	l0.278,0.342C20.334,24.08,21.55,25.391,22.363,26.237z M23.41,27.297l0.353,0.339c0.847,0.813,2.157,2.029,3.599,3.205l0.342,0.278
	l-0.233,0.374c-0.461,0.738-0.845,1.516-1.141,2.313l-0.182,0.488l-0.48-0.202c-1.749-0.734-3.495-1.862-5.046-3.263l-0.392-0.352
	L23.41,27.297z M27.593,30.39c-1.119-0.91-2.284-1.951-3.464-3.093l-0.365-0.354l3.18-3.179l0.354,0.364
	c1.143,1.18,2.184,2.345,3.093,3.464l0.318,0.392l-0.394,0.314c-0.861,0.687-1.329,1.155-2.016,2.015l-0.314,0.394L27.593,30.39z
	 M27.637,23.763l-0.339-0.353l3.18-3.18l0.352,0.389c1.421,1.565,2.56,3.306,3.294,5.033l0.206,0.483l-0.493,0.182
	c-0.804,0.295-1.592,0.683-2.342,1.152l-0.374,0.234l-0.278-0.342C29.657,25.912,28.445,24.604,27.637,23.763z M21.424,13.554
	c0.568-0.177,1.182-0.313,1.821-0.407l0.677-0.099l-0.111,0.674c-0.042,0.262-0.089,0.524-0.147,0.783l-0.119,0.518l-0.509-0.15
	c-0.549-0.161-1.065-0.277-1.536-0.346l-2.174-0.32L21.424,13.554z M18.193,15.224c1.314-0.433,2.936-0.389,4.688,0.127l0.514,0.15
	l-0.186,0.502c-0.276,0.749-0.614,1.456-1.005,2.1l-0.286,0.474l-0.442-0.334c-1.297-0.979-2.417-1.682-3.33-2.088l-1.186-0.526
	L18.193,15.224z M16.528,16.501l0.269-0.235l0.302,0.013c0.859,0.208,2.357,1.081,4.111,2.397l0.411,0.31L21.3,19.389
	c-0.323,0.404-0.608,0.727-0.896,1.015c-0.287,0.288-0.61,0.573-1.015,0.896l-0.402,0.321l-0.31-0.412
	c-1.315-1.753-2.189-3.251-2.396-4.11l-0.064-0.267L16.528,16.501z M15.231,18.222l0.394-1.264l0.541,1.209
	c0.408,0.912,1.106,2.025,2.077,3.31l0.335,0.442l-0.475,0.287c-0.63,0.382-1.324,0.715-2.062,0.99l-0.506,0.189l-0.15-0.518
	C14.882,21.125,14.828,19.52,15.231,18.222z M13.146,23.245c0.094-0.641,0.231-1.254,0.408-1.821l0.651-2.098l0.32,2.174
	c0.069,0.471,0.186,0.988,0.346,1.535l0.15,0.509l-0.518,0.119c-0.259,0.059-0.521,0.106-0.784,0.148l-0.673,0.108L13.146,23.245z
	 M15.814,32.71c-1.844-2.194-2.839-4.987-2.802-7.866l0.005-0.432l0.429-0.058c0.489-0.065,0.923-0.145,1.323-0.242l0.415-0.101
	l0.164,0.396c0.755,1.826,1.965,3.68,3.501,5.359l0.323,0.352l-3.008,3.007L15.814,32.71z M25.887,35.231
	c-0.097,0.4-0.177,0.833-0.242,1.323l-0.058,0.428l-0.432,0.005c-2.878,0.037-5.671-0.958-7.865-2.801l-0.418-0.352l3.008-3.007
	l0.352,0.323c1.68,1.536,3.533,2.746,5.36,3.501l0.396,0.164L25.887,35.231z M28.576,36.446c-0.567,0.177-1.181,0.313-1.821,0.408
	l-0.675,0.099l0.109-0.673c0.042-0.264,0.089-0.525,0.148-0.785l0.119-0.516l0.509,0.149c0.547,0.16,1.063,0.277,1.535,0.346
	l2.174,0.32L28.576,36.446z M31.778,34.768c-1.298,0.404-2.903,0.35-4.646-0.154l-0.518-0.15l0.188-0.505
	c0.275-0.737,0.609-1.431,0.991-2.062l0.286-0.475l0.442,0.334c1.284,0.971,2.397,1.67,3.31,2.078l1.209,0.541L31.778,34.768z
	 M33.485,33.485l-0.282,0.248l-0.302-0.013c-0.859-0.208-2.357-1.081-4.111-2.397l-0.411-0.31l0.321-0.402
	c0.646-0.809,1.103-1.265,1.911-1.912l0.402-0.321l0.31,0.412c1.315,1.753,2.189,3.251,2.396,4.11l0.064,0.267L33.485,33.485z
	 M34.776,31.807l-0.406,1.232l-0.526-1.185c-0.405-0.914-1.108-2.034-2.087-3.331l-0.335-0.442l0.475-0.287
	c0.645-0.39,1.352-0.729,2.101-1.004l0.502-0.185l0.15,0.513C35.165,28.872,35.209,30.493,34.776,31.807z M36.853,26.755
	c-0.093,0.64-0.229,1.253-0.407,1.821l-0.651,2.098l-0.32-2.174c-0.069-0.47-0.186-0.987-0.347-1.535l-0.149-0.509l0.518-0.119
	c0.259-0.059,0.521-0.105,0.782-0.148l0.675-0.11L36.853,26.755z M36.554,25.644c-0.484,0.064-0.917,0.144-1.323,0.242l-0.416,0.101
	l-0.163-0.396c-0.755-1.827-1.966-3.68-3.501-5.359l-0.323-0.352l3.008-3.007l0.351,0.417c1.844,2.194,2.838,4.987,2.802,7.865
	l-0.006,0.432L36.554,25.644z"/>
</svg>
